<svg id="Capa_1" enable-background="new 0 0 512.001 512.001" height="512" viewBox="0 0 512.001 512.001" width="512" xmlns="http://www.w3.org/2000/svg"><path d="m429.991 178.102c.655-2.984 1.009-6.038 1.009-9.105 0-11.029-4.239-21.087-11.171-28.641 1.435-4.781 2.171-9.729 2.171-14.763 0-5.576-.896-11.076-2.664-16.346-1.317-3.928-5.569-6.042-9.495-4.726-3.928 1.316-6.043 5.568-4.726 9.495 1.251 3.729 1.885 7.624 1.885 11.576 0 1.697-.118 3.379-.349 5.042-5.508-2.609-11.66-4.074-18.151-4.074-17.115 0-32.485 10.171-39.155 25.91-1.616 3.814.165 8.216 3.979 9.832 3.815 1.619 8.217-.164 9.832-3.979 4.315-10.184 14.264-16.764 25.345-16.764 15.163 0 27.5 12.308 27.5 27.436 0 2.971-.469 5.846-1.381 8.595h-323.475c-1.049-8.922 5.537-17.197 14.829-19.09 2.722-.557 4.789-2.526 5.608-4.985 1.104-2.186 1.121-4.867-.199-7.144-3.071-5.303-4.584-11.308-4.372-17.365.563-16.057 13.212-29.644 30.077-32.308 4.092-.646 6.885-4.487 6.238-8.578-1.184-3.414-2.553-6.576-2.325-10.332 0-14.039 11.448-25.46 25.521-25.46 11.202 0 21.26 7.469 24.459 18.163 1.187 3.969 5.367 6.222 9.335 5.036 3.969-1.188 6.223-5.367 5.036-9.335-3.059-10.227-10.063-18.592-19.027-23.638 5.102-16.206 20.275-27.554 37.675-27.554 14.028 0 27.033 7.484 34.111 19.555 1.676 3.731 6.207 5.35 9.835 3.697 3.41-2.04 7.135-3.594 11.193-3.73 11.744-.631 21.807 8.418 22.422 20.137.017.332.012.664.014.996-4.742 6.13-7.575 13.806-7.575 22.135 0 9.163 3.432 17.913 9.661 24.638 2.822 3.043 7.567 3.214 10.6.404 3.038-2.815 3.219-7.561.404-10.6-3.653-3.942-5.665-9.071-5.665-14.442.002-11.662 9.596-21.302 21.333-21.28 11.764 0 21.334 9.546 21.334 21.28-.69 8.512 6.975 10.324 13.866 9.098 7.309 0 14.49 1.798 20.771 5.199 3.571 1.954 8.185.654 10.167-3.022 1.973-3.643.619-8.194-3.022-10.167-8.281-4.485-17.696-6.895-27.268-7-2.828-17.211-17.823-30.388-35.847-30.388-5.502 0-10.72 1.234-15.398 3.43-4.84-15.435-19.694-26.293-36.578-25.396-3.688.193-7.315.959-10.751 2.231-10.217-13.578-26.357-21.775-43.607-21.775-23.888 0-44.739 15.521-51.882 37.732-1.839-.26-3.707-.402-5.598-.402-22.342 0-40.52 18.15-40.52 40.46 0 2.057.163 4.094.468 6.104-19.7 6.498-33.732 24.135-34.448 44.589-.215 6.16.784 12.275 2.913 18.03-11.311 5.434-18.902 16.708-18.902 29.248 0 1.525.115 3.038.331 4.532-6.179 3.532-10.362 10.169-10.362 17.774v8.983c0 9.574 6.623 17.612 15.526 19.841l44.407 270.456c1.394 8.49 8.656 14.652 17.27 14.652h33.577c.007 0 .014.001.021.001.006 0 .012-.001.018-.001h157.38c.006 0 .011.001.017.001.007 0 .014-.001.021-.001h33.097c8.568 0 15.825-6.125 17.255-14.563l45.853-270.536c8.92-2.218 15.558-10.263 15.558-19.849v-8.983c0-9.748-6.861-17.913-16.009-19.966zm1.009 28.949c0 3.02-2.468 5.476-5.5 5.476h-59.753c-.002 0-.005 0-.007 0h-170.74c-4.143 0-7.5 3.357-7.5 7.5s3.357 7.5 7.5 7.5h7.66l12.161 269.473h-31.272l-28.888-269.474h6.09c4.143 0 7.5-3.357 7.5-7.5s-3.357-7.5-7.5-7.5h-14.458c-.006 0-.011 0-.017 0h-59.776c-3.032 0-5.5-2.456-5.5-5.476v-8.983c0-3.02 2.468-5.476 5.5-5.476 0 0 336.994-.124 339 0 3.032 0 5.5 2.456 5.5 5.476zm-134.222 289.949 2.121-45.523c.192-4.138-3.006-7.647-7.144-7.841-4.1-.154-7.648 3.005-7.841 7.144l-2.153 46.22h-51.926l-12.16-269.474h76.638l-8.773 188.355c-.192 4.138 3.006 7.647 7.144 7.841.118.005.236.008.354.008 3.981 0 7.299-3.133 7.486-7.151l8.806-189.053h47.981l-29.819 269.474zm-156.042-2.082-43.903-267.392h42.742l28.888 269.474h-25.26c-1.231 0-2.269-.876-2.467-2.082zm229.064.013c-.203 1.199-1.24 2.069-2.466 2.069h-24.751l29.819-269.474h42.72z"/></svg>